<?xml version="1.0" encoding="utf-8"?>
<!-- Generator: Adobe Illustrator 19.2.1, SVG Export Plug-In . SVG Version: 6.00 Build 0)  -->
<svg version="1.1" id="Layer_1" xmlns="http://www.w3.org/2000/svg" xmlns:xlink="http://www.w3.org/1999/xlink" x="0px" y="0px"
	 viewBox="0 0 104.5 30.2" style="enable-background:new 0 0 104.5 30.2;" xml:space="preserve">
<path d="M4.1,19c1.4,1.3,2.8,2,4,2c0.6,0,1.2-0.2,1.6-0.6s0.7-0.9,0.7-1.5c0-0.5-0.2-0.9-0.5-1.3c-0.3-0.4-1-0.8-1.9-1.2
	c-1.3-0.6-2.3-1.3-3-2.1c-0.7-0.8-1-1.8-1-3c0-1.5,0.5-2.8,1.6-3.9c1.1-1,2.5-1.6,4.3-1.6c1.2,0,2.5,0.3,3.8,1v4.4
	c-1.2-1.1-2.3-1.7-3.3-1.7c-0.5,0-1,0.2-1.4,0.5s-0.6,0.7-0.6,1.1c0,0.4,0.2,0.8,0.5,1.1c0.3,0.3,0.9,0.7,1.7,1
	c1.4,0.6,2.4,1.3,3.1,2.1c0.7,0.8,1.1,1.9,1.1,3.2c0,1.7-0.6,3.2-1.8,4.4c-1.2,1.2-2.7,1.8-4.5,1.8c-1.4,0-2.8-0.4-4.4-1.2V19z"/>
<path d="M19.7,6.1H24l2.1,5.8c0.6,1.7,1.1,3.2,1.4,4.5h0.2l-0.1-3.1V6.1h4.1v18.4h-4.4l-2.1-5.8c-0.6-1.7-1.1-3.2-1.4-4.5h-0.2
	l0.1,3.1v7.2h-4.1V6.1z"/>
<path d="M34.9,2.9h2.9v24.8h-2.9V2.9z"/>
<g>
	<path d="M40.3,10.7c0.5,0.5,1,0.7,1.5,0.7c0.2,0,0.4-0.1,0.6-0.2s0.3-0.3,0.3-0.6c0-0.2-0.1-0.3-0.2-0.5c-0.1-0.1-0.4-0.3-0.7-0.5
		c-0.5-0.2-0.8-0.5-1.1-0.8c-0.3-0.3-0.4-0.7-0.4-1.1c0-0.6,0.2-1,0.6-1.4s0.9-0.6,1.6-0.6c0.4,0,0.9,0.1,1.4,0.4v1.6
		c-0.4-0.4-0.8-0.6-1.2-0.6c-0.2,0-0.4,0.1-0.5,0.2s-0.2,0.3-0.2,0.4c0,0.2,0.1,0.3,0.2,0.4c0.1,0.1,0.3,0.2,0.6,0.4
		c0.5,0.2,0.9,0.5,1.2,0.8c0.3,0.3,0.4,0.7,0.4,1.2c0,0.6-0.2,1.2-0.7,1.6c-0.5,0.4-1,0.7-1.7,0.7c-0.5,0-1.1-0.2-1.6-0.5V10.7z"/>
	<path d="M45.1,8.1h1.5V11c0,0.2,0,0.3,0.1,0.4c0.1,0.1,0.1,0.1,0.2,0.1c0.1,0,0.2-0.1,0.3-0.2c0.1-0.1,0.1-0.2,0.1-0.4V8.1h1.6v4.7
		h-1.3l-0.1-0.5c-0.2,0.2-0.3,0.3-0.5,0.4c-0.2,0.1-0.4,0.1-0.6,0.1c-0.4,0-0.7-0.2-0.9-0.5s-0.4-0.7-0.4-1.1V8.1z"/>
	<path d="M51.4,8.6c0.1-0.2,0.3-0.3,0.5-0.4C52,8,52.2,8,52.4,8c0.4,0,0.7,0.1,0.9,0.4s0.4,0.6,0.4,1v3.4h-1.6v-3
		c0-0.3-0.1-0.4-0.3-0.4c-0.1,0-0.2,0.1-0.3,0.2s-0.1,0.3-0.1,0.6v2.6h-1.5V8.1h1.3L51.4,8.6z"/>
	<path d="M57.1,5.9h1.6v6.8h-1.4l-0.1-0.5c-0.1,0.2-0.3,0.4-0.5,0.5s-0.4,0.2-0.6,0.2c-0.5,0-0.9-0.2-1.2-0.7s-0.4-1-0.4-1.7
		c0-0.7,0.2-1.2,0.5-1.7C55.3,8.2,55.7,8,56.2,8c0.2,0,0.3,0,0.5,0.1s0.3,0.2,0.5,0.3V5.9z M57.1,9.5c-0.1-0.1-0.1-0.2-0.2-0.2
		s-0.1-0.1-0.2-0.1c-0.2,0-0.3,0.1-0.4,0.3C56.1,9.8,56,10,56,10.4c0,0.3,0.1,0.6,0.2,0.8c0.1,0.2,0.2,0.3,0.4,0.3
		c0.1,0,0.3-0.1,0.3-0.2c0.1-0.2,0.1-0.3,0.1-0.5V9.5z"/>
	<path d="M59.6,5.9h1.5v2.6c0.2-0.2,0.3-0.3,0.5-0.4C61.7,8,61.9,8,62.1,8c0.5,0,0.9,0.2,1.1,0.7s0.4,1,0.4,1.6
		c0,0.7-0.2,1.3-0.5,1.8s-0.8,0.7-1.2,0.7c-0.2,0-0.3,0-0.5-0.1c-0.2-0.1-0.3-0.2-0.5-0.4l-0.4,0.4h-1V5.9z M61.1,11.3
		c0.1,0.1,0.1,0.1,0.2,0.2c0.1,0,0.1,0.1,0.2,0.1c0.2,0,0.3-0.1,0.4-0.3c0.1-0.2,0.2-0.5,0.2-0.9c0-0.3,0-0.6-0.1-0.8
		s-0.2-0.3-0.4-0.3c-0.2,0-0.3,0.1-0.4,0.2s-0.1,0.4-0.1,0.7V11.3z"/>
	<path d="M68.2,12.3c-0.6,0.3-1.2,0.5-1.7,0.5c-0.7,0-1.2-0.2-1.6-0.7s-0.6-1-0.6-1.7c0-0.7,0.2-1.3,0.6-1.7C65.2,8.2,65.8,8,66.4,8
		c0.6,0,1.1,0.2,1.4,0.6c0.4,0.4,0.5,1,0.5,1.6v0.4h-2.5c0.1,0.3,0.2,0.5,0.4,0.7s0.4,0.2,0.7,0.2c0.2,0,0.4,0,0.6-0.1
		c0.2-0.1,0.4-0.3,0.7-0.5V12.3z M67,9.8V9.6c0-0.2-0.1-0.4-0.2-0.5c-0.1-0.1-0.2-0.2-0.4-0.2c-0.2,0-0.3,0.1-0.5,0.2
		s-0.2,0.4-0.2,0.7H67z"/>
	<path d="M70.6,8.7c0.1-0.2,0.2-0.4,0.3-0.5S71.3,8,71.4,8c0.1,0,0.2,0,0.4,0.1v1.5c-0.2-0.1-0.3-0.1-0.4-0.1
		c-0.2,0-0.4,0.1-0.5,0.2s-0.2,0.4-0.2,0.6v2.4h-1.6V8.1h1.3L70.6,8.7z"/>
	<path d="M74.8,12.2c-0.1,0.2-0.3,0.3-0.4,0.4s-0.3,0.1-0.5,0.1c-0.4,0-0.8-0.2-1.1-0.7s-0.5-1-0.5-1.6c0-0.6,0.2-1.2,0.5-1.7
		S73.5,8,74,8c0.2,0,0.4,0,0.5,0.1s0.3,0.2,0.4,0.4l0.4-0.4h1v4.5c0,0.7-0.2,1.3-0.6,1.8S74.9,15,74.2,15c-0.5,0-1.1-0.1-1.6-0.4V13
		c0.5,0.4,0.9,0.6,1.3,0.6c0.3,0,0.5-0.1,0.7-0.3s0.3-0.4,0.3-0.7V12.2z M74.8,9.5c-0.1-0.1-0.1-0.1-0.2-0.2s-0.1-0.1-0.2-0.1
		c-0.2,0-0.3,0.1-0.4,0.3s-0.2,0.4-0.2,0.8c0,0.3,0.1,0.6,0.2,0.8s0.2,0.3,0.4,0.3c0.2,0,0.3-0.1,0.3-0.2c0.1-0.1,0.1-0.4,0.1-0.7
		V9.5z"/>
	<path d="M79.9,5.9h1.6l0.8,2.2c0.2,0.6,0.4,1.2,0.5,1.7h0.1l0-1.2V5.9h1.5v6.8h-1.6L82,10.6c-0.2-0.6-0.4-1.2-0.5-1.7h-0.1l0,1.2
		v2.7h-1.5V5.9z"/>
	<path d="M86.2,5.8c0.2,0,0.4,0.1,0.6,0.2S87,6.4,87,6.6c0,0.2-0.1,0.4-0.2,0.6c-0.2,0.2-0.4,0.2-0.6,0.2c-0.2,0-0.4-0.1-0.6-0.2
		c-0.2-0.2-0.2-0.4-0.2-0.6c0-0.2,0.1-0.4,0.2-0.6S86,5.8,86.2,5.8z M85.4,8.1H87v4.7h-1.6V8.1z"/>
	<path d="M90.7,12.5c-0.3,0.2-0.7,0.3-1,0.3c-0.6,0-1-0.2-1.4-0.7c-0.4-0.5-0.6-1-0.6-1.7c0-0.7,0.2-1.3,0.6-1.7
		C88.7,8.2,89.2,8,89.8,8c0.3,0,0.6,0.1,0.9,0.2v1.4c-0.2-0.2-0.4-0.2-0.6-0.2c-0.2,0-0.4,0.1-0.6,0.3s-0.2,0.4-0.2,0.7
		s0.1,0.6,0.2,0.8s0.4,0.3,0.6,0.3c0.2,0,0.4-0.1,0.6-0.3V12.5z"/>
	<path d="M91.6,5.9h1.5v3.6l0.7-1.4h1.4l-0.9,1.3l1.1,3.4h-1.6L93.4,11l-0.2,0.3v1.5h-1.5V5.9z"/>
	<path d="M95.8,11c0.5,0.4,0.9,0.6,1.3,0.6c0.1,0,0.3,0,0.4-0.1s0.2-0.2,0.2-0.3c0-0.1,0-0.2-0.1-0.2c-0.1-0.1-0.2-0.1-0.4-0.2
		c-0.5-0.2-0.9-0.4-1-0.7s-0.2-0.5-0.2-0.7c0-0.4,0.2-0.8,0.5-1C96.7,8.1,97.1,8,97.6,8c0.4,0,0.9,0.1,1.3,0.3v1.4
		c-0.4-0.3-0.7-0.5-1-0.5c-0.1,0-0.3,0-0.3,0.1s-0.1,0.1-0.1,0.2c0,0.1,0.2,0.3,0.5,0.4c0.9,0.3,1.3,0.8,1.3,1.4
		c0,0.4-0.2,0.8-0.5,1.1c-0.4,0.3-0.8,0.5-1.4,0.5c-0.5,0-1-0.1-1.5-0.4V11z"/>
	<path d="M43.9,24.6c-0.4,0.2-0.8,0.3-1.1,0.3c-0.8,0-1.4-0.3-1.8-1s-0.7-1.5-0.7-2.5c0-0.6,0.1-1.2,0.3-1.7c0.2-0.5,0.5-1,0.9-1.3
		s0.9-0.5,1.4-0.5c0.3,0,0.7,0.1,1,0.2v1.6c-0.3-0.3-0.5-0.4-0.8-0.4c-0.4,0-0.7,0.2-0.9,0.6c-0.2,0.4-0.3,0.9-0.3,1.6
		c0,0.6,0.1,1.1,0.3,1.4c0.2,0.4,0.5,0.5,0.8,0.5c0.3,0,0.5-0.1,0.9-0.4V24.6z"/>
	<path d="M44.7,17.9h2.4c0.6,0,1.1,0.2,1.5,0.5s0.5,0.8,0.5,1.4c0,0.3-0.1,0.6-0.2,1c-0.1,0.3-0.4,0.6-0.7,0.8S47.4,22,46.8,22h-0.5
		v2.7h-1.6V17.9z M46.3,19.2v1.5h0.4c0.3,0,0.5-0.1,0.6-0.2c0.2-0.1,0.2-0.3,0.2-0.6c0-0.2-0.1-0.4-0.2-0.5s-0.3-0.2-0.5-0.2H46.3z"
		/>
	<path d="M50.4,17.9H52l1.8,6.8H52l-0.2-1.4h-1.3l-0.2,1.4h-1.6L50.4,17.9z M51.2,19.8l-0.4,2.4h0.9L51.2,19.8z"/>
	<path d="M54.9,21.5h-0.7c0.3-0.8,0.4-1.4,0.5-1.9c-0.5-0.2-0.7-0.5-0.7-0.9c0-0.3,0.1-0.5,0.3-0.7s0.4-0.2,0.6-0.2
		c0.3,0,0.5,0.1,0.7,0.3c0.2,0.2,0.3,0.5,0.3,0.8C55.7,19.6,55.5,20.5,54.9,21.5z"/>
	<path d="M57,23c0.5,0.4,0.9,0.6,1.3,0.6c0.1,0,0.3,0,0.4-0.1s0.2-0.2,0.2-0.3c0-0.1,0-0.2-0.1-0.2c-0.1-0.1-0.2-0.1-0.4-0.2
		c-0.5-0.2-0.9-0.4-1-0.7S57,21.6,57,21.4c0-0.4,0.2-0.8,0.5-1c0.4-0.3,0.8-0.4,1.3-0.4c0.4,0,0.9,0.1,1.3,0.3v1.4
		c-0.4-0.3-0.7-0.5-1-0.5c-0.1,0-0.3,0-0.3,0.1s-0.1,0.1-0.1,0.2c0,0.1,0.2,0.3,0.5,0.4c0.9,0.3,1.3,0.8,1.3,1.4
		c0,0.4-0.2,0.8-0.5,1.1c-0.4,0.3-0.8,0.5-1.4,0.5c-0.5,0-1-0.1-1.5-0.4V23z"/>
	<path d="M62.3,27.1h-0.7c0.3-0.7,0.4-1.4,0.5-1.9c-0.5-0.2-0.7-0.5-0.7-0.9c0-0.3,0.1-0.5,0.3-0.7s0.4-0.2,0.6-0.2
		c0.3,0,0.5,0.1,0.7,0.3s0.2,0.5,0.2,0.8C63.2,25.1,62.9,26,62.3,27.1z"/>
	<path d="M66.7,17.9h1.6v5.4h2.2v1.4h-3.8V17.9z"/>
	<path d="M70.9,17.9h1.6v5.4h2.2v1.4h-3.8V17.9z"/>
	<path d="M78.6,24.6c-0.4,0.2-0.8,0.3-1.1,0.3c-0.8,0-1.4-0.3-1.8-1s-0.7-1.5-0.7-2.5c0-0.6,0.1-1.2,0.3-1.7c0.2-0.5,0.5-1,0.9-1.3
		s0.9-0.5,1.4-0.5c0.3,0,0.7,0.1,1,0.2v1.6c-0.3-0.3-0.5-0.4-0.8-0.4c-0.4,0-0.7,0.2-0.9,0.6c-0.2,0.4-0.3,0.9-0.3,1.6
		c0,0.6,0.1,1.1,0.3,1.4c0.2,0.4,0.5,0.5,0.8,0.5c0.3,0,0.5-0.1,0.9-0.4V24.6z"/>
</g>
</svg>
